<svg width="48" height="48" viewBox="0 0 52 48" fill="none" xmlns="http://www.w3.org/2000/svg">
<path d="M6.5 14C6.5 16.1217 7.41309 18.1566 9.03841 19.6569C10.6637 21.1571 12.8681 22 15.1667 22C17.4652 22 19.6696 21.1571 21.2949 19.6569C22.9202 18.1566 23.8333 16.1217 23.8333 14C23.8333 11.8783 22.9202 9.84344 21.2949 8.34315C19.6696 6.84285 17.4652 6 15.1667 6C12.8681 6 10.6637 6.84285 9.03841 8.34315C7.41309 9.84344 6.5 11.8783 6.5 14Z" stroke="#1ABCFE" stroke-width="2" stroke-linecap="round" stroke-linejoin="round"/>
<path d="M15.166 6V14H23.8327M19.4993 34V42M36.8327 28V42M28.166 26V42M45.4993 24V42" stroke="#1ABCFE" stroke-width="2" stroke-linecap="round" stroke-linejoin="round"/>
</svg>
