<svg width="48" height="48" viewBox="0 0 51 48" fill="none" xmlns="http://www.w3.org/2000/svg">
<path d="M44.6241 45.0001H35.0616C34.2165 44.9993 33.4063 44.683 32.8087 44.1205C32.2111 43.5581 31.875 42.7955 31.8741 42.0001V33.0001C31.875 32.2047 32.2111 31.4421 32.8087 30.8797C33.4063 30.3172 34.2165 30.0009 35.0616 30.0001H44.6241C45.4693 30.0009 46.2795 30.3172 46.8771 30.8797C47.4747 31.4421 47.8108 32.2047 47.8116 33.0001V42.0001C47.8108 42.7955 47.4747 43.5581 46.8771 44.1205C46.2795 44.683 45.4693 44.9993 44.6241 45.0001ZM35.0616 33.0001V42.0001H44.6241V33.0001H35.0616ZM28.6866 39.0001H19.1241C17.8565 38.9989 16.6411 38.5244 15.7447 37.6808C14.8483 36.8371 14.3442 35.6932 14.3429 34.5001V28.5001H17.5304V34.5001C17.5308 34.8978 17.6989 35.2791 17.9977 35.5603C18.2964 35.8415 18.7016 35.9997 19.1241 36.0001H28.6866V39.0001ZM41.4366 27.0001H38.2491V22.5001C38.2487 22.1024 38.0807 21.7211 37.7819 21.4399C37.4831 21.1587 37.0779 21.0005 36.6554 21.0001H28.6866V18.0001H36.6554C37.9231 18.0013 39.1385 18.4758 40.0348 19.3194C40.9312 20.1631 41.4354 21.307 41.4366 22.5001V27.0001ZM23.9054 27.0001C23.6275 27.0003 23.3544 26.932 23.1133 26.8021L15.9366 22.9321L8.75998 26.8021C8.49082 26.9472 8.18253 27.0152 7.87291 26.9977C7.56329 26.9803 7.2658 26.8782 7.01692 26.704C6.76803 26.5298 6.57857 26.291 6.47175 26.017C6.36494 25.7429 6.34541 25.4455 6.41557 25.1611L8.10654 18.3031L3.61536 13.7731C3.41906 13.5749 3.28348 13.3303 3.22303 13.0654C3.16257 12.8004 3.17951 12.525 3.27202 12.2684C3.36454 12.0118 3.52918 11.7836 3.74847 11.608C3.96775 11.4324 4.23348 11.316 4.51742 11.2711L11.2112 10.2181L14.5039 3.84311C14.6334 3.59286 14.8343 3.38147 15.0842 3.23259C15.3341 3.08371 15.6231 3.00321 15.9188 3.00009C16.2146 2.99698 16.5054 3.07138 16.7588 3.21496C17.0121 3.35855 17.218 3.56565 17.3535 3.81311L20.8661 10.2181L27.3638 11.2711C27.6471 11.3171 27.9119 11.4343 28.1302 11.6103C28.3485 11.7864 28.5121 12.0147 28.6037 12.2711C28.6954 12.5276 28.7116 12.8026 28.6507 13.067C28.5898 13.3314 28.4541 13.5754 28.2579 13.7731L23.7667 18.3031L25.4561 25.1611C25.5103 25.3809 25.5111 25.6094 25.4584 25.8296C25.4058 26.0497 25.301 26.2558 25.152 26.4326C25.0029 26.6093 24.8134 26.7522 24.5976 26.8504C24.3818 26.9487 24.1451 26.9999 23.9054 27.0001ZM15.9366 19.5001C15.9366 19.5001 16.4833 19.7701 16.7287 19.9036L21.5259 22.4896L20.2764 17.4241L23.9134 13.7566L18.7608 12.9211L15.9797 7.84811L13.3595 12.9211L7.97107 13.7686L11.5953 17.4241L10.3458 22.4896L15.1429 19.9036C15.3916 19.7701 15.9366 19.5001 15.9366 19.5001Z" fill="#1ABCFE"/>
</svg>
