<svg width="22" height="22" viewBox="0 0 22 22" fill="none" xmlns="http://www.w3.org/2000/svg">
<g clip-path="url(#clip0_1200_262)">
<path d="M22 10.9998C22 4.92471 17.0751 -0.000158402 11 -0.000158402C4.92486 -0.000158402 0 4.92471 0 10.9998C0 16.4903 4.02254 21.041 9.28125 21.8662V14.1795H6.48828V10.9998H9.28125V8.5764C9.28125 5.81953 10.9235 4.29672 13.4361 4.29672C14.6396 4.29672 15.8984 4.51156 15.8984 4.51156V7.21859H14.5114C13.1449 7.21859 12.7188 8.06652 12.7188 8.93642V10.9998H15.7695L15.2818 14.1795H12.7188V21.8662C17.9775 21.041 22 16.4903 22 10.9998Z" fill="#100F0D"/>
<path d="M15.2818 14.1797L15.7695 11H12.7188V8.93658C12.7188 8.06667 13.1449 7.21875 14.5114 7.21875H15.8984V4.51172C15.8984 4.51172 14.6396 4.29687 13.4361 4.29687C10.9235 4.29687 9.28125 5.81969 9.28125 8.57656V11H6.48828V14.1797H9.28125V21.8664C9.84128 21.9542 10.4153 22 11 22C11.5847 22 12.1587 21.9542 12.7188 21.8664V14.1797H15.2818Z" fill="white"/>
</g>
<defs>
<clipPath id="clip0_1200_262">
<rect width="22" height="22" fill="white"/>
</clipPath>
</defs>
</svg>
