<svg width="20" height="20" viewBox="0 0 19 18" fill="none" xmlns="http://www.w3.org/2000/svg">
<path d="M5.56555 0.0629441C4.55474 0.108124 3.86446 0.260945 3.26102 0.485586C2.63648 0.716166 2.10714 1.02559 1.58045 1.52635C1.05377 2.02711 0.729433 2.52895 0.48775 3.12151C0.253858 3.69446 0.0953964 4.34894 0.0507459 5.30708C0.00609547 6.26523 -0.00378463 6.57321 0.00115542 9.01726C0.00609547 11.4613 0.0174956 11.7677 0.0665161 12.7278C0.114777 13.6852 0.275518 14.339 0.512641 14.9108C0.756413 15.5025 1.08265 16.0038 1.61142 16.5029C2.1402 17.0021 2.66954 17.3086 3.29655 17.5379C3.90075 17.7592 4.59179 17.91 5.60298 17.9519C6.61417 17.9939 6.93965 18.0036 9.51873 17.9989C12.0978 17.9942 12.4225 17.9834 13.4358 17.9379C14.4491 17.8924 15.1356 17.739 15.7394 17.5154C16.3639 17.284 16.8935 16.9754 17.42 16.4743C17.9465 15.9732 18.2706 15.471 18.5121 14.8781C18.7462 14.3057 18.9052 13.651 18.9491 12.6938C18.9934 11.7331 19.0038 11.4264 18.9989 8.9827C18.9939 6.53901 18.9823 6.23265 18.9343 5.27288C18.8862 4.31312 18.7253 3.66134 18.4883 3.08911C18.2442 2.49745 17.9183 1.99651 17.3898 1.49701C16.8612 0.997507 16.3307 0.690606 15.705 0.462365C15.1004 0.240785 14.4098 0.0897642 13.3986 0.048364C12.3874 0.00696388 12.0619 -0.00365616 9.48187 0.00102385C6.90184 0.00570387 6.57883 0.0161439 5.56555 0.0629441ZM5.67651 16.3328C4.75025 16.2947 4.24732 16.1489 3.91216 16.0268C3.46831 15.8648 3.15215 15.669 2.81812 15.3556C2.4841 15.0422 2.2789 14.7416 2.10562 14.3221C1.97547 14.0045 1.81871 13.5286 1.77539 12.6511C1.72827 11.7027 1.71839 11.4179 1.71288 9.0151C1.70737 6.61227 1.71706 6.32787 1.76095 5.37908C1.80047 4.5023 1.95533 4.0253 2.08396 3.70796C2.25496 3.28694 2.46092 2.98795 2.79247 2.67169C3.12403 2.35543 3.44038 2.16067 3.88365 1.99651C4.21844 1.87267 4.7208 1.72543 5.64668 1.68367C6.64856 1.63867 6.94877 1.62967 9.48472 1.62445C12.0207 1.61923 12.3216 1.62823 13.3239 1.66999C14.2494 1.70815 14.7531 1.85341 15.0877 1.97599C15.5317 2.13799 15.8477 2.33257 16.1815 2.64721C16.5154 2.96185 16.7211 3.26048 16.8944 3.68132C17.0253 3.99758 17.1807 4.47332 17.2244 5.351C17.2721 6.30015 17.283 6.58473 17.2875 8.98702C17.2921 11.3893 17.2832 11.6746 17.2393 12.623C17.1988 13.5005 17.0453 13.9772 16.9163 14.2951C16.7453 14.7154 16.5391 15.0151 16.2074 15.3311C15.8756 15.6472 15.5597 15.842 15.1162 16.0061C14.7818 16.1298 14.2789 16.2774 13.3537 16.3192C12.3519 16.3638 12.0516 16.3732 9.51474 16.3784C6.97784 16.3836 6.67858 16.3739 5.6767 16.3328M13.4212 4.18982C13.4216 4.40344 13.4888 4.61215 13.6144 4.78957C13.74 4.96698 13.9183 5.10513 14.1268 5.18653C14.3352 5.26793 14.5645 5.28894 14.7856 5.24689C15.0067 5.20484 15.2096 5.10162 15.3688 4.95029C15.5279 4.79896 15.6361 4.60632 15.6797 4.39673C15.7233 4.18714 15.7003 3.97001 15.6136 3.77281C15.5269 3.5756 15.3804 3.40719 15.1927 3.28885C15.005 3.17052 14.7844 3.10759 14.5589 3.10801C14.2566 3.10859 13.967 3.22287 13.7536 3.42574C13.5402 3.62861 13.4207 3.90345 13.4212 4.18982ZM4.62219 9.00898C4.62751 11.5614 6.81558 13.6258 9.50923 13.621C12.2029 13.6161 14.3835 11.5434 14.3784 8.99098C14.3733 6.43857 12.1846 4.3736 9.49061 4.37864C6.79657 4.38368 4.61706 6.45693 4.62219 9.00898ZM6.33335 9.00574C6.33211 8.41238 6.51663 7.832 6.86356 7.33799C7.2105 6.84398 7.70428 6.45853 8.28245 6.23037C8.86062 6.00222 9.49723 5.94162 10.1118 6.05622C10.7263 6.17083 11.2912 6.4555 11.7349 6.87423C12.1787 7.29297 12.4814 7.82696 12.6048 8.40869C12.7282 8.99042 12.6667 9.59375 12.4282 10.1424C12.1897 10.691 11.7848 11.1603 11.2647 11.491C10.7446 11.8216 10.1327 11.9987 9.50638 11.9999C9.0905 12.0007 8.67853 11.9239 8.29398 11.7739C7.90943 11.6238 7.55985 11.4035 7.26519 11.1255C6.97054 10.8474 6.73659 10.5171 6.5767 10.1534C6.41681 9.78971 6.33412 9.39972 6.33335 9.00574Z" fill="black"/>
</svg>
