<svg width="23" height="19" viewBox="0 0 23 19" fill="none" xmlns="http://www.w3.org/2000/svg">
<path fill-rule="evenodd" clip-rule="evenodd" d="M1 3.84813V15.2406C1 15.996 1.31105 16.7204 1.86473 17.2546C2.41841 17.7887 3.16936 18.0888 3.95238 18.0888H18.7143C19.4973 18.0888 20.2483 17.7887 20.8019 17.2546C21.3556 16.7204 21.6667 15.996 21.6667 15.2406V3.84813C21.6667 3.09276 21.3556 2.36832 20.8019 1.8342C20.2483 1.30007 19.4973 1 18.7143 1H3.95238C3.16936 1 2.41841 1.30007 1.86473 1.8342C1.31105 2.36832 1 3.09276 1 3.84813Z" stroke="white" stroke-linecap="round" stroke-linejoin="round"/>
<path d="M3.95312 5.27197L11.3341 9.54417L18.715 5.27197" stroke="white" stroke-linecap="round" stroke-linejoin="round"/>
</svg>
