<svg width="20" height="20" viewBox="0 0 20 15" fill="none" xmlns="http://www.w3.org/2000/svg">
<path d="M19.1588 2.51447C18.9384 1.66653 18.2893 0.998812 17.465 0.772197C15.9709 0.360352 9.97977 0.360352 9.97977 0.360352C9.97977 0.360352 3.98866 0.360352 2.49456 0.772197C1.67027 0.998812 1.02104 1.66653 0.800736 2.51447C0.400391 4.05131 0.400391 7.25781 0.400391 7.25781C0.400391 7.25781 0.400391 10.4643 0.800736 12.0013C1.02104 12.8491 1.67027 13.5168 2.49456 13.7435C3.98866 14.1553 9.97977 14.1553 9.97977 14.1553C9.97977 14.1553 15.9709 14.1553 17.465 13.7435C18.2893 13.5168 18.9384 12.8491 19.1588 12.0013C19.5591 10.4643 19.5591 7.25781 19.5591 7.25781C19.5591 7.25781 19.5591 4.05131 19.1588 2.51447Z" fill="black"/>
<path d="M8.02148 10.1689L13.0289 7.25783L8.02148 4.34643V10.1689Z" fill="white"/>
</svg>
